Coordinates
version=1
nRows=13
nColumns=36
inDegrees=yes

Units are S.I. units (second, meters, Newtons, ...)
If the header above contains a line with 'inDegrees', this indicates whether rotational values are in degrees (yes) or radians (no).

endheader
time	pelvis_tilt	pelvis_list	pelvis_rotation	pelvis_tx	pelvis_ty	pelvis_tz	hip_flexion_r	hip_adduction_r	hip_rotation_r	knee_angle_r	knee_angle_r_beta	ankle_angle_r	subtalar_angle_r	mtp_angle_r	hip_flexion_l	hip_adduction_l	hip_rotation_l	knee_angle_l	knee_angle_l_beta	ankle_angle_l	subtalar_angle_l	mtp_angle_l	lumbar_extension	lumbar_bending	lumbar_rotation	arm_flex_r	arm_add_r	arm_rot_r	elbow_flex_r	pro_sup_r	arm_flex_l	arm_add_l	arm_rot_l	elbow_flex_l	pro_sup_l
      5.12500000	     -6.12320953	     -0.31580211	      1.94060923	      0.49780628	      1.31321163	     -0.08618932	    -10.81671089	    -10.80962230	    -10.97735050	     10.16635538	      0.17743637	    -15.64746504	     -2.12032573	     -7.49999987	     -1.71085780	     -3.77371156	     -3.11355899	     22.28323337	      0.38891579	    -29.51448132	      4.84871346	     -7.49999987	     10.43492079	      4.66128821	      2.59397127	    -25.56077725	    -17.14990215	    -49.08495292	     20.22736638	     59.32072928	    -22.40246268	    -15.68408802	    -51.56327001	     21.86599220	     44.60862099
      5.12916670	     -6.14624944	     -0.36536606	      1.87959008	      0.49810557	      1.31701646	     -0.08457312	    -10.86851700	    -10.83279030	    -10.95240668	      9.99368632	      0.17442273	    -15.02027715	     -2.56046205	     -7.49999987	     -1.63333043	     -3.94232110	     -2.72027022	     22.44587020	      0.39175434	    -29.28704284	      4.92859048	     -7.49999987	     10.64729346	      4.67465776	      2.62248152	    -26.01983717	    -17.92909040	    -49.94575708	     19.85900113	     58.70498871	    -22.54004071	    -16.50225015	    -52.72001988	     21.37378718	     43.69422518
      5.13333330	     -6.06650594	     -0.37409627	      1.66093242	      0.49833928	      1.32331799	     -0.08576702	    -11.00255366	    -11.05840264	    -11.19673319	      9.60888344	      0.16770665	    -14.61960327	     -3.11308790	     -7.49999987	     -1.78361513	     -3.96978094	     -2.32502698	     22.38672455	      0.39072205	    -29.08842021	      4.78950607	     -7.49999987	     10.66565760	      4.68433932	      2.75664024	    -26.57366560	    -18.40740903	    -52.66379384	     20.97445604	     56.61877936	    -22.96853695	    -16.84980128	    -55.37187450	     22.42339071	     41.19197283
      5.13750000	     -6.12924352	     -0.23802430	      1.50789194	      0.49858632	      1.32717748	     -0.08528471	    -11.17728926	    -11.40922614	    -11.21923198	      8.91363533	      0.15557228	    -13.85428897	     -3.39138342	     -7.49999987	     -1.70905767	     -3.83531616	     -2.24090726	     22.46050351	      0.39200974	    -28.59423520	      4.38587901	     -7.49999987	     10.71792009	      4.55988104	      2.77970118	    -27.14349012	    -19.14005412	    -52.88799736	     21.06180731	     56.50113466	    -23.42887070	    -17.60770038	    -55.58360931	     22.49918028	     41.06709448
      5.14166670	     -6.19762829	     -0.37596492	      1.49974139	      0.49959683	      1.32916116	     -0.08442977	    -11.27254698	    -11.37389193	    -11.49527836	      8.42816922	      0.14709930	    -13.17870637	     -3.72086842	     -7.49999987	     -1.69873541	     -3.95714588	     -1.86847124	     22.27164559	      0.38871355	    -28.38338084	      4.16183098	     -7.49999987	     10.87312962	      4.62873500	      2.65472043	    -27.80417196	    -19.39471156	    -55.16750728	     22.02421859	     54.37740225	    -23.64805649	    -18.28831610	    -57.45287248	     22.85239325	     39.32914695
      5.14583330	     -6.36295192	     -0.49071075	      1.41480273	      0.50131744	      1.33437245	     -0.08410808	    -11.42093133	    -11.34359134	    -11.49599522	      7.87862815	      0.13750800	    -13.20121058	     -3.61545170	     -7.49999987	     -1.68870356	     -4.01475644	     -1.50994431	     21.92710323	      0.38270015	    -28.31112878	      4.02987738	     -7.49999987	     11.13775075	      4.54699922	      2.47222529	    -28.49660209	    -19.81313766	    -55.36207856	     22.32216802	     54.17942181	    -24.20666923	    -19.07013207	    -57.57345409	     22.75015726	     39.14361794
      5.15000000	     -6.58428560	     -0.68882058	      1.21080173	      0.50103277	      1.33953889	     -0.08419338	    -11.27540415	    -11.25155971	    -11.93995568	      7.71305733	      0.13461825	    -12.83737183	     -3.40528210	     -7.49999987	     -1.66397622	     -4.25698628	     -0.98303363	     21.42320849	      0.37390552	    -27.81739740	      4.04936946	     -7.49999987	     11.36417639	      4.72581160	      2.40698262	    -29.16283590	    -20.30450418	    -55.60815026	     22.48427026	     53.84191202	    -24.57848241	    -19.74885536	    -57.64313412	     22.21343947	     38.81199268
      5.15416670	     -6.69110566	     -0.86587072	      1.20021558	      0.50259363	      1.33804332	     -0.08328386	    -11.26639195	    -11.17634143	    -12.48848752	      7.74548056	      0.13518414	    -12.26361407	     -3.39733046	     -7.49999987	     -1.72392508	     -4.57514037	     -0.79505467	     21.07545724	      0.36783612	    -27.35634977	      4.05392007	     -7.49999987	     11.49858954	      4.86489852	      2.27724463	    -30.47757496	    -20.04332415	    -57.03996840	     22.67181053	     52.58692662	    -24.76156436	    -20.73452184	    -57.76719487	     21.45855462	     40.01973969
      5.15833330	     -6.83070890	     -0.70663657	      0.92462552	      0.50356806	      1.34544930	     -0.08450525	    -11.31459780	    -11.53912757	    -12.86600550	      7.37736971	      0.12875939	    -12.63597463	     -3.12966819	     -7.49999987	     -1.72992620	     -4.38294158	     -0.74313588	     20.78032031	      0.36268501	    -26.77168197	      3.46856366	     -7.49999987	     11.59616036	      4.68295459	      2.36534538	    -32.53610351	    -19.59320322	    -54.47895521	     20.68077599	     47.74575636	    -25.35969914	    -22.16668183	    -52.20769254	     19.90897211	     31.85840371
      5.16250000	     -6.96894499	     -0.59240844	      0.87130331	      0.50517317	      1.34673895	     -0.08251638	    -11.45276162	    -11.72842812	    -13.29094754	      6.84576413	      0.11948112	    -13.00503198	     -2.85145450	     -7.49999987	     -1.80819806	     -4.39483821	     -0.93494229	     20.03353882	      0.34965121	    -26.60683939	      3.29785513	     -7.49999987	     11.64256542	      4.46128366	      2.40980003	    -35.25942150	    -17.82254359	    -54.94112315	     16.34879300	     48.25113441	    -25.90124286	    -22.86965079	    -52.92314716	     19.45793633	     32.62694119
      5.16666670	     -7.22999087	     -0.49203190	      0.82350700	      0.50481766	      1.35244844	     -0.08415861	    -11.37774894	    -11.86925947	    -13.78872415	      6.56054047	      0.11450303	    -13.49306620	     -2.77037448	     -7.49999987	     -1.76170544	     -4.24668564	     -1.15104889	     19.30089293	      0.33686413	    -26.54292658	      3.04036656	     -7.49999987	     11.73281921	      4.30546616	      2.40634989	    -38.06566335	    -15.83873552	    -54.63700301	     10.37778029	     48.19228326	    -26.47626977	    -23.38438306	    -52.82283757	     19.08634816	     31.72892785
      5.17083330	     -7.29410549	     -0.45699022	      0.75249603	      0.50515734	      1.35569778	     -0.08393736	    -11.37597114	    -11.96083225	    -14.17919760	      6.57173685	      0.11469845	    -14.12040545	     -2.97263577	     -7.49999987	     -1.91460815	     -4.16658128	     -0.90648732	     18.65086659	      0.32551903	    -26.58435718	      3.00653205	     -7.49999987	     11.81661659	      4.45326090	      1.60627934	    -40.84013426	    -14.45889831	    -48.12221558	      5.20940328	     51.66182454	    -27.87969988	    -23.78437246	    -50.88435467	     18.51059585	     24.70941550
      5.17500000	     -7.20472598	     -0.32505583	      0.79261893	      0.50496434	      1.35372395	     -0.08397127	    -11.43921504	    -12.18606943	    -14.31194820	      6.85789768	      0.11969289	    -14.33487224	     -3.35403059	     -7.49999987	     -2.04925451	     -4.09453075	     -0.96635770	     18.43636696	      0.32177531	    -26.17302929	      2.68042660	     -7.49999987	     11.74869718	      4.42764074	      1.18947701	    -43.02370717	    -12.94077551	    -48.04153985	      2.77220296	     52.08800365	    -28.81775370	    -24.02668526	    -51.09140767	     18.40673881	     25.32790801
